<svg xmlns="http://www.w3.org/2000/svg" width="885" height="1185" viewBox="0 0 885 1185">
<g>
<path d="M 552.80 840.90 C543.06,844.81 534.70,848.00 534.22,848.00 C533.74,848.00 531.95,844.00 530.25,839.11 L 527.16 830.21 L 531.83 828.47 C544.65,823.71 583.89,806.19 594.00,800.73 C622.89,785.11 631.01,780.25 645.48,769.93 C682.67,743.40 701.20,714.26 707.11,673.00 C708.89,660.65 708.61,631.64 706.60,619.50 C698.56,570.87 675.17,531.97 640.05,508.82 C625.57,499.27 611.80,493.84 593.50,490.44 C580.16,487.97 552.71,488.89 536.85,492.33 C508.26,498.54 484.15,509.82 464.25,526.27 C460.26,529.57 457.00,532.67 457.00,533.17 C457.00,533.66 458.08,536.19 459.39,538.79 C464.44,548.75 468.91,567.24 470.55,584.90 C471.17,591.61 471.07,592.24 469.53,591.65 C468.60,591.29 464.05,591.00 459.42,591.00 L 451.00 591.00 L 451.00 586.63 C451.00,577.91 445.75,553.00 443.91,553.00 C442.78,553.00 438.28,567.53 437.04,575.21 C436.47,578.67 436.01,584.20 436.00,587.50 L 435.98 593.50 L 427.74 595.85 C423.21,597.15 418.64,598.46 417.59,598.76 C415.76,599.29 415.71,598.82 416.34,587.75 C417.42,568.83 421.42,552.61 428.11,540.07 C429.70,537.09 431.00,534.10 431.00,533.42 C431.00,531.33 412.55,516.81 401.00,509.82 C376.27,494.85 349.29,488.00 320.50,489.38 C258.68,492.34 205.88,530.43 185.69,586.65 C178.70,606.09 175.51,635.52 177.93,658.08 C180.86,685.28 190.13,712.78 203.76,734.72 C235.46,785.74 287.93,816.34 357.71,824.51 C364.74,825.33 371.27,826.00 372.22,826.00 C373.55,826.00 373.85,826.64 373.51,828.75 C373.27,830.26 372.79,834.59 372.44,838.37 L 371.81 845.24 L 363.66 844.56 C310.74,840.11 265.14,823.02 230.00,794.44 C221.72,787.71 206.45,772.27 200.39,764.50 C183.49,742.85 170.13,715.72 163.50,689.59 C155.73,658.97 155.78,621.26 163.62,592.08 C174.01,553.43 197.60,521.26 233.23,497.13 C241.21,491.73 260.93,482.34 272.00,478.67 C293.37,471.59 300.78,470.50 327.00,470.54 C347.61,470.57 351.78,470.85 360.92,472.84 C381.23,477.26 401.69,486.17 419.96,498.53 C424.50,501.61 428.38,503.95 428.58,503.75 C428.91,503.42 426.87,495.35 422.57,480.00 C400.91,402.55 394.77,377.75 390.07,348.73 C382.01,298.94 396.18,253.36 430.58,218.39 C455.68,192.89 487.84,176.19 524.86,169.46 C532.26,168.11 537.79,167.86 551.36,168.27 C571.02,168.86 577.56,170.32 592.73,177.49 C615.91,188.45 632.84,208.47 637.06,229.91 C639.05,240.03 637.85,255.08 634.34,264.00 C626.67,283.51 609.79,301.12 584.41,316.11 C557.96,331.73 513.28,345.40 465.52,352.48 C453.69,354.23 429.77,356.17 427.74,355.55 C427.06,355.33 422.96,354.88 418.63,354.53 L 410.76 353.89 L 411.45 357.70 C414.92,376.83 425.65,419.02 439.49,468.00 C441.90,476.52 445.29,489.35 447.03,496.50 C448.76,503.65 450.35,510.06 450.56,510.74 C450.78,511.49 454.59,509.23 460.21,505.01 C491.33,481.67 539.54,467.23 579.00,469.43 C617.15,471.56 646.89,484.86 674.07,511.97 C695.61,533.44 707.62,552.97 717.49,582.50 C724.90,604.68 728.00,624.06 728.00,648.15 C728.00,685.84 718.76,718.27 700.85,743.42 C689.79,758.95 672.70,774.99 651.50,789.73 C630.18,804.55 584.81,828.07 552.80,840.90 ZM 417.40 334.99 C422.74,336.67 450.07,335.31 466.76,332.54 C532.47,321.62 575.45,304.69 600.04,280.05 C617.01,263.05 622.57,245.73 616.54,228.64 C613.65,220.45 610.33,215.41 603.22,208.37 C576.34,181.80 530.57,180.08 483.25,203.88 C447.24,221.98 421.22,252.87 411.55,289.01 C408.14,301.75 406.27,319.63 407.81,324.77 C409.23,329.49 413.13,333.65 417.40,334.99 Z" fill="rgb(33,52,90)"/>
<path d="M 437.07 1018.47 C426.36,1020.83 412.06,1021.21 402.52,1019.41 C380.97,1015.33 368.18,1002.64 363.95,981.16 C361.28,967.57 365.57,931.97 369.87,932.02 C371.78,932.04 385.98,935.65 386.61,936.27 C386.84,936.51 386.05,940.71 384.85,945.60 C381.69,958.50 381.68,976.29 384.83,984.19 C387.37,990.56 391.92,995.14 398.95,998.39 C402.87,1000.21 405.38,1000.50 417.00,1000.50 C428.37,1000.50 431.68,1000.13 437.96,998.16 C460.57,991.06 479.64,975.44 490.18,955.40 C496.04,944.24 498.94,933.47 499.69,919.98 C501.02,896.11 492.06,867.41 475.50,842.50 C464.48,825.94 450.68,811.24 413.07,776.02 C395.74,759.79 385.97,748.80 377.26,735.71 C364.53,716.60 358.72,698.72 358.65,678.50 C358.59,660.68 362.86,647.46 373.50,632.50 C381.80,620.83 396.68,608.70 410.38,602.42 L 415.69 599.99 L 416.02 593.91 C415.83,598.99 416.19,599.17 417.59,598.76 C418.64,598.46 423.21,597.15 427.74,595.85 L 435.98 593.50 L 436.00 587.50 C436.01,584.20 436.47,578.67 437.04,575.21 C436.47,578.67 436.01,584.33 436.01,587.80 L 436.00 594.09 L 439.75 593.43 C447.08,592.15 449.42,591.84 450.24,590.56 C450.69,589.86 450.69,588.85 450.81,587.23 C451.07,583.65 449.91,575.41 448.43,567.92 C449.84,574.89 451.00,582.54 451.00,586.63 L 451.00 591.00 L 459.42 591.00 C464.05,591.00 468.60,591.29 469.53,591.65 C469.90,591.79 470.19,591.86 470.40,591.80 C470.43,593.07 470.44,594.31 470.45,595.50 L 470.50 610.50 L 458.00 611.16 C439.86,612.11 429.66,614.63 415.73,621.60 C398.36,630.29 384.65,646.50 379.45,664.48 C376.76,673.80 377.91,690.78 382.00,702.00 C390.42,725.12 404.05,742.18 440.00,774.63 C471.97,803.49 491.16,826.96 503.44,852.26 C524.52,895.67 524.74,936.37 504.09,971.00 C498.81,979.86 481.39,997.83 472.76,1003.31 C460.52,1011.10 449.70,1015.69 437.07,1018.47 ZM 662.05 782.03 C678.39,769.50 691.69,756.29 700.85,743.42 C691.19,756.98 678.60,769.60 662.05,782.03 ZM 552.47 841.03 C542.82,845.12 535.44,848.00 534.22,848.00 C534.69,848.00 542.87,844.88 552.47,841.03 ZM 466.28 559.08 C467.46,563.64 468.46,568.19 469.06,572.00 C469.26,573.24 469.44,574.91 469.61,576.83 C468.77,570.71 467.63,564.67 466.28,559.08 ZM 593.05 822.69 C604.96,816.81 616.78,810.58 627.24,804.66 C617.31,810.36 606.43,816.11 594.50,821.98 C594.03,822.22 593.54,822.45 593.05,822.69 ZM 459.39 538.79 C458.08,536.20 457.00,533.67 457.00,533.17 C457.00,533.67 458.11,536.25 459.45,538.91 C459.52,539.05 459.59,539.19 459.67,539.34 C459.58,539.15 459.48,538.97 459.39,538.79 Z" fill="rgb(205,47,44)"/>
<path d="M 0.00 592.50 L 0.00 0.00 L 442.50 0.00 L 885.00 0.00 L 885.00 592.50 L 885.00 1185.00 L 442.50 1185.00 L 0.00 1185.00 L 0.00 592.50 ZM 437.07 1018.47 C449.70,1015.69 460.52,1011.10 472.76,1003.31 C481.39,997.83 498.81,979.86 504.09,971.00 C524.74,936.37 524.52,895.67 503.44,852.26 C491.16,826.96 471.97,803.49 440.00,774.63 C404.05,742.18 390.42,725.12 382.00,702.00 C377.91,690.78 376.76,673.80 379.45,664.48 C384.65,646.50 398.36,630.29 415.73,621.60 C429.66,614.63 439.86,612.11 458.00,611.16 L 470.50 610.50 L 470.45 595.50 C470.42,587.25 469.80,576.67 469.06,572.00 C467.41,561.50 462.73,545.37 459.45,538.91 C458.10,536.25 457.00,533.66 457.00,533.17 C457.00,532.67 460.26,529.57 464.25,526.27 C484.15,509.82 508.26,498.54 536.85,492.33 C552.71,488.89 580.16,487.97 593.50,490.44 C611.80,493.84 625.57,499.27 640.05,508.82 C675.17,531.97 698.56,570.87 706.60,619.50 C708.61,631.64 708.89,660.65 707.11,673.00 C701.20,714.26 682.67,743.40 645.48,769.93 C631.01,780.25 622.89,785.11 594.00,800.73 C583.89,806.19 544.65,823.71 531.83,828.47 L 527.16 830.21 L 530.25 839.11 C531.95,844.00 533.74,848.00 534.22,848.00 C537.10,848.00 574.14,832.01 594.50,821.98 C648.42,795.42 680.91,771.42 700.85,743.42 C718.76,718.27 728.00,685.84 728.00,648.15 C728.00,624.06 724.90,604.68 717.49,582.50 C707.62,552.97 695.61,533.44 674.07,511.97 C646.89,484.86 617.15,471.56 579.00,469.43 C539.54,467.23 491.33,481.67 460.21,505.01 C454.59,509.23 450.78,511.49 450.56,510.74 C450.35,510.06 448.76,503.65 447.03,496.50 C445.29,489.35 441.90,476.52 439.49,468.00 C425.65,419.02 414.92,376.83 411.45,357.70 L 410.76 353.89 L 418.63 354.53 C422.96,354.88 427.06,355.33 427.74,355.55 C429.77,356.17 453.69,354.23 465.52,352.48 C513.28,345.40 557.96,331.73 584.41,316.11 C609.79,301.12 626.67,283.51 634.34,264.00 C637.85,255.08 639.05,240.03 637.06,229.91 C632.84,208.47 615.91,188.45 592.73,177.49 C577.56,170.32 571.02,168.86 551.36,168.27 C537.79,167.86 532.26,168.11 524.86,169.46 C487.84,176.19 455.68,192.89 430.58,218.39 C396.18,253.36 382.01,298.94 390.07,348.73 C394.77,377.75 400.91,402.55 422.57,480.00 C426.87,495.35 428.91,503.42 428.58,503.75 C428.38,503.95 424.50,501.61 419.96,498.53 C401.69,486.17 381.23,477.26 360.92,472.84 C351.78,470.85 347.61,470.57 327.00,470.54 C300.78,470.50 293.37,471.59 272.00,478.67 C260.93,482.34 241.21,491.73 233.23,497.13 C197.60,521.26 174.01,553.43 163.62,592.08 C155.78,621.26 155.73,658.97 163.50,689.59 C170.13,715.72 183.49,742.85 200.39,764.50 C206.45,772.27 221.72,787.71 230.00,794.44 C265.14,823.02 310.74,840.11 363.66,844.56 L 371.81 845.24 L 372.44 838.37 C372.79,834.59 373.27,830.26 373.51,828.75 C373.85,826.64 373.55,826.00 372.22,826.00 C371.27,826.00 364.74,825.33 357.71,824.51 C287.93,816.34 235.46,785.74 203.76,734.72 C190.13,712.78 180.86,685.28 177.93,658.08 C175.51,635.52 178.70,606.09 185.69,586.65 C205.88,530.43 258.68,492.34 320.50,489.38 C349.29,488.00 376.27,494.85 401.00,509.82 C412.55,516.81 431.00,531.33 431.00,533.42 C431.00,534.10 429.70,537.09 428.11,540.07 C421.36,552.73 417.35,569.08 416.33,588.18 L 415.69 599.99 L 410.38 602.42 C396.68,608.70 381.80,620.83 373.50,632.50 C362.86,647.46 358.59,660.68 358.65,678.50 C358.72,698.72 364.53,716.60 377.26,735.71 C385.97,748.80 395.74,759.79 413.07,776.02 C450.68,811.24 464.48,825.94 475.50,842.50 C492.06,867.41 501.02,896.11 499.69,919.98 C498.94,933.47 496.04,944.24 490.18,955.40 C479.64,975.44 460.57,991.06 437.96,998.16 C431.68,1000.13 428.37,1000.50 417.00,1000.50 C405.38,1000.50 402.87,1000.21 398.95,998.39 C391.92,995.14 387.37,990.56 384.83,984.19 C381.68,976.29 381.69,958.50 384.85,945.60 C386.05,940.71 386.84,936.51 386.61,936.27 C385.98,935.65 371.78,932.04 369.87,932.02 C365.57,931.97 361.28,967.57 363.95,981.16 C368.18,1002.64 380.97,1015.33 402.52,1019.41 C412.06,1021.21 426.36,1020.83 437.07,1018.47 ZM 436.01 587.80 C436.01,584.33 436.47,578.67 437.04,575.21 C438.28,567.53 442.78,553.00 443.91,553.00 C445.93,553.00 451.34,579.88 450.81,587.23 C450.47,591.80 451.12,591.44 439.75,593.43 L 436.00 594.09 L 436.01 587.80 ZM 417.40 334.99 C413.13,333.65 409.23,329.49 407.81,324.77 C406.27,319.63 408.14,301.75 411.55,289.01 C421.22,252.87 447.24,221.98 483.25,203.88 C530.57,180.08 576.34,181.80 603.22,208.37 C610.33,215.41 613.65,220.45 616.54,228.64 C622.57,245.73 617.01,263.05 600.04,280.05 C575.45,304.69 532.47,321.62 466.76,332.54 C450.07,335.31 422.74,336.67 417.40,334.99 Z" fill="rgb(254,254,254)"/>
</g>
</svg>